<svg xmlns="http://www.w3.org/2000/svg" viewBox="0 0 1000 324">
  <path fill="#1434CB" d="M651.185 0.36h-99.072c-9.536 0-17.8 3.459-21.796 14.434l-61.818 278.544h77.792c9.536 0 17.899-3.459 21.795-14.434l61.818-278.544H651.185z"/>
  <path fill="#1434CB" d="M293.148 0.36L221.219 212.722l-7.637-36.623c-13.33-42.956-54.816-89.466-101.297-112.76l65.416 261.001h78.199L362.516 0.36H293.148z"/>
  <path fill="#1434CB" d="M135.658 0.36H0.136L0 6.357c104.914 25.395 174.483 86.716 203.199 160.343L173.612 14.794C169.817 3.819 161.553 0.36 151.817 0.36H135.658z"/>
  <path fill="#1434CB" d="M846.919 0.36c-18.667 0-32.401 9.738-40.442 24.576L709.715 324.36h77.792l13.33-37.427h82.194l7.637 37.427H967L912.184 0.36H846.919zM826.93 224.094l34.202-93.936l19.477 93.936H826.93z"/>
  <path fill="#1434CB" d="M968.519 0.36l-60.409 323.604h73.797L1042.316 0.36H968.519z"/>
</svg> 